<svg
    xmlns="http://www.w3.org/2000/svg"
    width="24"
    height="24"
    viewBox="0 0 24 24"
    fill="currentColor"
>
  <path d="M19 2H5c-1.1 0-2 .9-2 2v17c0 .55.45 1 1 1 .23 0 .46-.08.66-.22L7 20.34l2.34 1.56c.41.28.95.28 1.36 0L13 20.34l2.34 1.56c.41.28.95.28 1.36 0L19 20.34l2.34 1.56c.2.14.43.22.66.22.55 0 1-.45 1-1V4c0-1.1-.9-2-2-2zm0 17.74-1.34-.89c-.41-.27-.95-.27-1.36 0L14 19.9l-2.34-1.56a.993.993 0 0 0-1.36 0L8 19.9l-2.34-1.56a.993.993 0 0 0-1.36 0L3 19.74V4h16v15.74zM14 10H7V8h7v2zm3 4H7v-2h10v2zm0-8H7V4h10v2z"/>
</svg>
